<svg xmlns="http://www.w3.org/2000/svg" width="20.234" height="16" viewBox="0 0 20.234 16">
  <g id="Group_551" data-name="Group 551" transform="translate(-4905 -390.476)">
    <path id="Rectangle_1" data-name="Rectangle 1" d="M1,0H5.409a1,1,0,0,1,1,1V13.735a0,0,0,0,1,0,0H0a0,0,0,0,1,0,0V1A1,1,0,0,1,1,0Z" transform="translate(4919.407 390.476) rotate(45)"/>
    <path id="Rectangle_3" data-name="Rectangle 3" d="M0,0H1.831a0,0,0,0,1,0,0V6.409a.916.916,0,0,1-.916.916h0A.916.916,0,0,1,0,6.409V0A0,0,0,0,1,0,0Z" transform="translate(4923.939 397.598) rotate(45)"/>
    <path id="Path_1391" data-name="Path 1391" d="M628.3,854.336h6.475l1.295-1.295-3.237-3.237Z" transform="translate(4276.701 -447.861)"/>
  </g>
</svg>
